<?xml version="1.0" encoding="iso-8859-1"?>
<!-- Generator: Adobe Illustrator 24.1.0, SVG Export Plug-In . SVG Version: 6.00 Build 0)  -->
<svg version="1.1" xmlns="http://www.w3.org/2000/svg" xmlns:xlink="http://www.w3.org/1999/xlink" x="0px" y="0px"
	 viewBox="0 0 512 512" style="enable-background:new 0 0 512 512;" xml:space="preserve">
<g id="_x34_8_website_x2C__communication_x2C__media_x2C__auto_painting_x2C__dent">
	<g>
		<path id="XMLID_1655_" d="M501,1H11C5.478,1,1,5.478,1,11v380c0,22.056,17.944,40,40,40h160v70c0,5.522,4.478,10,10,10h60
			c5.522,0,10-4.478,10-10v-70h190c22.056,0,40-17.944,40-40V11C511,5.478,506.522,1,501,1z M291,41h170c5.522,0,10,4.478,10,10
			s-4.478,10-10,10H291c-5.522,0-10-4.478-10-10S285.478,41,291,41z M131,41c5.585,0,10,4.558,10,10c0,5.511-4.492,10-10,10
			c-5.511,0-10-4.49-10-10C121,45.545,125.425,41,131,41z M91,41c5.585,0,10,4.558,10,10c0,5.511-4.492,10-10,10
			c-5.511,0-10-4.49-10-10C81,45.545,85.425,41,91,41z M51,41c5.512,0,10,4.491,10,10c0,5.511-4.492,10-10,10
			c-5.511,0-10-4.49-10-10C41,45.545,45.425,41,51,41z M261,491h-40V361h40V491z M491,391c0,11.028-8.972,20-20,20H281v-60
			c0-5.522-4.478-10-10-10h-20v-50c0-4.037-2.428-7.678-6.154-9.23L131,234.333V186h20v25c0,5.522,4.478,10,10,10h150v70
			c0,16.542,13.458,30,30,30s30-13.458,30-30v-10c0-2.757,2.243-5,5-5c13.785,0,25-11.215,25-25c0-3.183,0-106.947,0-110
			c0-5.522-4.478-10-10-10H161c-5.522,0-10,4.478-10,10v25h-30c-5.522,0-10,4.478-10,10v65c0,4.037,2.428,7.678,6.154,9.23
			L231,297.667V341h-20c-5.522,0-10,4.478-10,10v60H41c-11.028,0-20-8.972-20-20V101h470V391z M171,201v-50h210v50
			C370.702,201,180.99,201,171,201z M381,221v30c0,2.757-2.243,5-5,5c-13.785,0-25,11.215-25,25v10c0,5.514-4.486,10-10,10
			s-10-4.486-10-10v-70H381z"/>
	</g>
</g>
<g id="Layer_1">
</g>
</svg>
