<?xml version="1.0" encoding="iso-8859-1"?>
<!-- Generator: Adobe Illustrator 24.1.0, SVG Export Plug-In . SVG Version: 6.00 Build 0)  -->
<svg version="1.1" xmlns="http://www.w3.org/2000/svg" xmlns:xlink="http://www.w3.org/1999/xlink" x="0px" y="0px"
	 viewBox="0 0 512 512" style="enable-background:new 0 0 512 512;" xml:space="preserve">
<g id="_x36_5_x2C__maintenance_x2C__Configuration_x2C__gear_x2C__install_x2C__options_x2C_">
	<g>
		<g>
			<path d="M86,171c30.345,0,58.536-16.477,73.613-42.5h195.87c15.078,26.023,43.269,42.5,73.613,42.5
				c18.679,0,36.404-5.947,51.258-17.198c14.359-10.877,25.086-26.332,30.202-43.52c0.958-3.216,0.34-6.694-1.665-9.383
				c-2.006-2.689-5.163-4.274-8.518-4.274h-60.653v-21.25h60.653c3.355,0,6.512-1.584,8.518-4.274
				c2.006-2.689,2.623-6.167,1.665-9.383c-5.116-17.188-15.843-32.643-30.202-43.52C465.501,6.947,447.776,1,429.097,1
				c-30.345,0-58.535,16.477-73.613,42.5h-195.87C144.536,17.477,116.345,1,86,1C39.131,1,1,39.131,1,86S39.131,171,86,171z
				 M86,22.25c24.482,0,47.095,14.301,57.611,36.435c1.76,3.705,5.495,6.065,9.597,6.065H361.89c4.102,0,7.837-2.361,9.597-6.065
				c10.516-22.134,33.129-36.435,57.611-36.435c22.94,0,43.956,12.578,55.186,31.875h-55.186c-5.868,0-10.625,4.757-10.625,10.625
				v42.5c0,5.868,4.757,10.625,10.625,10.625h55.186c-11.23,19.297-32.245,31.875-55.186,31.875
				c-24.481,0-47.094-14.301-57.611-36.435c-1.76-3.705-5.495-6.065-9.597-6.065H153.208c-4.102,0-7.836,2.361-9.597,6.065
				C133.095,135.449,110.482,149.75,86,149.75c-35.152,0-63.75-28.598-63.75-63.75S50.848,22.25,86,22.25z"/>
			<path d="M86,128.5c23.435,0,42.5-19.065,42.5-42.5S109.435,43.5,86,43.5S43.5,62.565,43.5,86S62.565,128.5,86,128.5z M86,64.75
				c11.717,0,21.25,9.533,21.25,21.25S97.717,107.25,86,107.25S64.75,97.717,64.75,86S74.283,64.75,86,64.75z"/>
			<path d="M379.722,408.716c4.906-8.94,8.806-18.347,11.656-28.114h23.997c5.868,0,10.625-4.757,10.625-10.625v-57.954
				c0-5.868-4.757-10.625-10.625-10.625h-23.997c-2.85-9.768-6.751-19.174-11.656-28.114l16.976-16.977
				c4.149-4.149,4.149-10.877,0-15.026l-40.98-40.979c-4.15-4.149-10.876-4.149-15.026,0l-16.976,16.976
				c-8.939-4.906-18.346-8.807-28.114-11.657v-23.996c0-5.868-4.757-10.625-10.625-10.625h-57.954
				c-5.868,0-10.625,4.757-10.625,10.625v23.996c-9.767,2.851-19.174,6.751-28.113,11.657l-16.977-16.977
				c-4.149-4.149-10.877-4.149-15.026,0.001l-40.979,40.979c-4.149,4.149-4.149,10.877-0.001,15.026l16.976,16.977
				c-4.906,8.939-8.806,18.346-11.657,28.114H96.625c-5.868,0-10.625,4.757-10.625,10.625v57.954
				c0,5.868,4.757,10.625,10.625,10.625h23.996c2.851,9.768,6.751,19.175,11.657,28.114l-16.976,16.976
				c-4.149,4.149-4.149,10.877,0,15.026l40.979,40.98c4.15,4.149,10.878,4.149,15.026,0l16.977-16.976
				c8.939,4.906,18.346,8.806,28.113,11.656v23.997c0,5.868,4.757,10.625,10.625,10.625h57.954c5.868,0,10.625-4.757,10.625-10.625
				v-23.997c9.767-2.85,19.174-6.751,28.114-11.656l16.976,16.976c4.15,4.148,10.876,4.148,15.026,0l40.98-40.98
				c4.149-4.149,4.149-10.877,0-15.026L379.722,408.716z M256,409.58c-37.815,0-68.579-30.765-68.579-68.58
				s30.765-68.58,68.579-68.58c37.815,0,68.58,30.765,68.58,68.58S293.815,409.58,256,409.58z"/>
		</g>
	</g>
</g>
<g id="Layer_1">
</g>
</svg>
