<?xml version="1.0" encoding="iso-8859-1"?>
<!-- Generator: Adobe Illustrator 24.3.0, SVG Export Plug-In . SVG Version: 6.00 Build 0)  -->
<svg version="1.1" xmlns="http://www.w3.org/2000/svg" xmlns:xlink="http://www.w3.org/1999/xlink" x="0px" y="0px"
	 viewBox="0 0 512 512" style="enable-background:new 0 0 512 512;" xml:space="preserve">
<g id="_x34_2_x2C__Analysis_x2C__graph_x2C__web_analysis_x2C__website_x2C__statistics">
	<g>
		<g>
			<path d="M319.875,436H192.125l26.667-80h74.415L319.875,436z M219.875,416h72.251l-13.333-40h-45.585L219.875,416z"/>
		</g>
		<g>
			<path d="M356,476H156v-12.334C156,437.383,177.383,416,203.667,416h104.667C334.617,416,356,437.383,356,463.666V476z
				 M177.08,456h157.84c-3.332-11.538-13.989-20-26.586-20H203.667C191.069,436,180.412,444.462,177.08,456z"/>
		</g>
		<g>
			<rect x="246" y="326" width="20" height="20"/>
		</g>
		<g>
			<path d="M455.5,376h-399C34.168,376,16,357.832,16,335.5v-259C16,54.168,34.168,36,56.5,36h399c22.332,0,40.5,18.168,40.5,40.5
				v259C496,357.832,477.832,376,455.5,376z M56.5,56C45.196,56,36,65.196,36,76.5v259c0,11.304,9.196,20.5,20.5,20.5h399
				c11.304,0,20.5-9.196,20.5-20.5v-259c0-11.304-9.196-20.5-20.5-20.5H56.5z"/>
		</g>
		<g>
			<path d="M456,316H56V76h400V316z M76,296h360V96H76V296z"/>
		</g>
		<g>
			<path d="M276.251,265.749c-13.646-13.647-13.646-35.851,0-49.498c13.646-13.646,35.852-13.646,49.498,0
				c13.646,13.647,13.646,35.851,0,49.498C312.101,279.396,289.898,279.395,276.251,265.749z M290.394,230.393
				c-5.849,5.848-5.849,15.365,0,21.213c5.848,5.849,15.365,5.849,21.213,0c5.849-5.848,5.849-15.365,0-21.213
				C305.758,224.544,296.241,224.545,290.394,230.393z"/>
		</g>
		<g>
			<path d="M356.251,175.749c-13.646-13.647-13.646-35.851,0-49.498c13.646-13.646,35.852-13.646,49.498,0
				c13.646,13.647,13.646,35.851,0,49.498C392.103,189.395,369.898,189.396,356.251,175.749z M370.394,140.393
				c-5.849,5.848-5.849,15.365,0,21.213c5.848,5.849,15.365,5.849,21.213,0c5.849-5.848,5.849-15.365,0-21.213
				C385.758,134.544,376.241,134.545,370.394,140.393z"/>
		</g>
		<g>
			<rect x="305.718" y="186" transform="matrix(0.6327 -0.7744 0.7744 0.6327 -26.5271 336.0737)" width="70.563" height="20"/>
		</g>
		<g>
			<path d="M131,275.984c-8.963,0-17.926-3.412-24.749-10.235c-13.646-13.647-13.646-35.851,0-49.498
				c13.646-13.646,35.852-13.646,49.498,0c13.646,13.647,13.646,35.851,0,49.498C148.926,272.572,139.963,275.984,131,275.984z
				 M120.394,230.393c-5.849,5.848-5.849,15.365,0,21.213c5.848,5.849,15.365,5.849,21.213,0c5.849-5.848,5.849-15.365,0-21.213
				C135.758,224.544,126.241,224.545,120.394,230.393z"/>
		</g>
		<g>
			<path d="M186.251,175.749c-13.646-13.647-13.646-35.851,0-49.498c13.646-13.646,35.852-13.646,49.498,0
				c13.646,13.647,13.646,35.851,0,49.498C222.103,189.395,199.898,189.396,186.251,175.749z M200.394,140.393
				c-5.849,5.848-5.849,15.365,0,21.213c5.848,5.849,15.365,5.849,21.213,0c5.849-5.848,5.849-15.365,0-21.213
				C215.758,134.544,206.241,134.545,200.394,140.393z"/>
		</g>
		<g>
			<rect x="135.718" y="186" transform="matrix(0.6327 -0.7744 0.7744 0.6327 -88.973 204.4222)" width="70.563" height="20"/>
		</g>
		<g>
			<rect x="246" y="157.36" transform="matrix(0.7071 -0.7071 0.7071 0.7071 -63.6121 238.4263)" width="20.001" height="77.279"/>
		</g>
	</g>
</g>
<g id="Layer_1">
</g>
</svg>
